<svg viewBox="0 0 500 500" xmlns="http://www.w3.org/2000/svg" xmlns:bx="https://boxy-svg.com">
  <defs></defs>
  <path style="stroke-opacity: 0; stroke-linecap: round; stroke: rgb(220, 196, 196); fill: rgb(195, 187, 211);" d="M 86.1705 16.627666666666666 C 70.703 24.718333333333334 39.768 40.89966666666667 26.442166666666665 114.42966666666666 C 13.116333333333335 187.95966666666666 17.399666666666665 318.8383333333333 34.05683333333334 392.36833333333334 C 50.714 465.8983333333333 79.74499999999999 482.0796666666667 143.0425 488.7425 C 206.34 495.4053333333334 303.904 492.5496666666667 365.06 485.17283333333336 C 426.21600000000007 477.796 450.964 465.89799999999997 461.9101666666666 395.46166666666664 C 472.85633333333334 325.0253333333333 470.00066666666663 196.05066666666667 462.14799999999997 122.28283333333333 C 454.2953333333333 48.51499999999999 441.4456666666667 29.953999999999997 380.5278333333333 20.1975 C 319.61 10.441 210.62400000000002 9.489 156.131 9.013 C 101.63799999999999 8.537 101.63799999999999 8.537 101.63800000000002 8.537 C 101.63799999999999 8.537 101.63799999999999 8.537 86.1705 16.627666666666666" bx:d="M 101.638 8.537 U 8.833 57.081 U 21.683 449.717 U 108.776 498.261 U 401.468 489.694 U 475.712 454 U 467.145 67.076 U 428.596 11.393 U 101.638 8.537 U 101.638 8.537 Z 1@e4e58b77"></path>
  <path style="fill: rgb(216, 216, 216); stroke: rgb(0, 0, 0); fill-opacity: 0; stroke-linecap: round; stroke-width: 22px;" d="M 134.163 445.118 C 134.163 445.118 138.85444573677572 173.72355174598565 140.05 100.069 C 140.61309842293883 65.3781764997958 133.6407439576276 25.43869603649473 141.229 23.523 C 152.17247324315852 20.760261341691567 195.02757506880363 162.99214809986483 218.954 162.484 C 241.05700549494102 162.01457758207283 265.42981594684016 39.2748961564889 280.189 41.187 C 294.6275778724238 43.057568193015044 292.62283216871003 166.38737629609986 307.276 168.373 C 322.2263726278131 170.39889737684808 356.57574969783946 45.02987534103698 369.691 48.254 C 392.4453945847617 53.84771746556902 368.514 455.717 368.514 455.717" bx:d="M 134.163 445.118 R 140.05 100.069 R 141.229 23.523 R 218.954 162.484 R 280.189 41.187 R 307.276 168.373 R 369.691 48.254 R 368.514 455.717 1@cd3c6723"></path>
  <line style="fill: rgb(216, 216, 216); stroke: rgb(0, 0, 0); stroke-linecap: round; stroke-width: 12px;" x1="178.196" y1="259.257" x2="238.009" y2="260.222"></line>
  <line style="fill: rgb(216, 216, 216); stroke: rgb(0, 0, 0); stroke-linecap: round; stroke-width: 12px;" x1="274.188" y1="262.151" x2="334.001" y2="263.115"></line>
  <path style="fill: rgb(216, 216, 216); stroke: rgb(0, 0, 0); stroke-width: 16px; stroke-linecap: round; fill-opacity: 0;" d="M 223.584 394.049 C 223.584 394.049 289.39380927408223 374.3284356543513 294.703 362.256 C 297.4704985786048 355.96305438201426 288.009 342.175 288.009 342.175" transform="matrix(0.846317, 0.53268, -0.53268, 0.846317, 235.950826, -81.602975)" bx:d="M 223.584 394.049 R 294.703 362.256 R 288.009 342.175 1@8809ce84"></path>
</svg>